<?xml version="1.0" standalone="no"?>
<!DOCTYPE svg PUBLIC "-//W3C//DTD SVG 20010904//EN"
 "http://www.w3.org/TR/2001/REC-SVG-20010904/DTD/svg10.dtd">
<svg version="1.0" xmlns="http://www.w3.org/2000/svg"
 width="586.000000pt" height="582.000000pt" viewBox="0 0 586.000000 582.000000"
 preserveAspectRatio="xMidYMid meet">

<g transform="translate(0.000000,582.000000) scale(0.100000,-0.100000)"
fill="#000000" stroke="none">
<path d="M0 2910 l0 -2910 2930 0 2930 0 0 2910 0 2910 -2930 0 -2930 0 0
-2910z m3280 1393 l5 -641 30 -43 c17 -23 48 -52 70 -63 39 -21 53 -21 673
-24 l632 -2 0 -1193 0 -1193 -25 -51 c-30 -60 -80 -98 -150 -113 -34 -7 -522
-10 -1560 -8 l-1510 3 -48 28 c-26 15 -60 47 -75 69 l-27 42 -3 1836 -2 1837
23 44 c26 49 87 97 138 109 19 4 437 7 929 7 l895 -2 5 -642z m337 508 c66
-54 958 -951 972 -978 l12 -23 -526 0 -525 0 0 520 c0 306 4 520 9 520 5 0 31
-18 58 -39z"/>
<path d="M2161 3214 c-30 -38 -31 -190 -2 -225 l19 -24 784 -3 c534 -2 795 0
820 8 47 13 62 54 56 155 -6 128 89 115 -849 115 l-808 0 -20 -26z"/>
<path d="M2183 2670 c-37 -15 -45 -45 -41 -147 2 -80 6 -97 22 -109 17 -12
146 -14 826 -14 937 0 842 -13 848 115 5 96 -9 140 -50 154 -38 14 -1572 14
-1605 1z"/>
<path d="M2165 2085 c-23 -22 -25 -32 -25 -115 0 -83 2 -93 25 -115 l24 -25
799 0 c773 0 801 1 823 19 22 18 24 26 24 121 0 95 -2 103 -24 121 -22 18 -50
19 -823 19 l-799 0 -24 -25z"/>
</g>
</svg>
